<svg width="32" height="32" viewBox="0 0 32 32" fill="none" xmlns="http://www.w3.org/2000/svg">
  <rect width="32" height="32" rx="6" fill="#1a1a1a"/>
  <!-- Gift box base -->
  <rect x="8" y="12" width="16" height="14" fill="#FFD700"/>
  <!-- Gift box ribbon vertical -->
  <rect x="15" y="12" width="2" height="14" fill="#1a1a1a"/>
  <!-- Gift box ribbon horizontal -->
  <rect x="6" y="15" width="20" height="2" fill="#1a1a1a"/>
  <!-- Gift box top -->
  <rect x="10" y="6" width="12" height="6" fill="#FFD700"/>
  <!-- D letter for Divi -->
  <path d="M17.5 9.5C18.5 9.5 19 10 19 11C19 12 18.5 12.5 17.5 12.5H14.5V9.5H17.5Z" fill="#1a1a1a"/>
  <path d="M14.5 17.5C14.5 16.5 15 16 16 16H17C18 16 18.5 16.5 18.5 17.5V20.5C18.5 21.5 18 22 17 22H16C15 22 14.5 21.5 14.5 20.5V17.5Z" fill="#1a1a1a"/>
</svg> 